<svg width="64" height="64" viewBox="0 0 64 64" fill="none" xmlns="http://www.w3.org/2000/svg">
    <path
        d="M6.40852 52.3033C9.9349 52.3033 12.7936 49.4442 12.7936 45.9173C12.7936 42.3904 9.9349 39.5312 6.40852 39.5312C2.88214 39.5312 0.0234375 42.3904 0.0234375 45.9173C0.0234375 49.4442 2.88214 52.3033 6.40852 52.3033Z"
        fill="currentColor" />
    <path d="M63.9823 11.7188H50.9531V24.748H63.9823V11.7188Z" fill="currentColor" />
    <path fill-rule="evenodd" clip-rule="evenodd"
        d="M29.8495 11.7189C29.8495 11.7189 29.8495 24.2924 29.8495 39.3949C29.8495 42.8397 28.4731 46.1417 26.0265 48.5663C23.5799 50.991 20.266 52.3372 16.8219 52.3056C16.8208 52.3056 16.8203 52.3056 16.8203 52.3056V11.7188H29.8495V11.7189Z"
        fill="currentColor" />
    <path d="M46.912 11.7188H33.8828V52.3056H46.912V11.7188Z" fill="currentColor" />
</svg>
