<?xml version="1.0" encoding="UTF-8" standalone="no"?><!DOCTYPE svg PUBLIC "-//W3C//DTD SVG 1.1//EN" "http://www.w3.org/Graphics/SVG/1.1/DTD/svg11.dtd"><svg width="100%" height="100%" viewBox="0 0 2000 2000" version="1.1" xmlns="http://www.w3.org/2000/svg" xmlns:xlink="http://www.w3.org/1999/xlink" xml:space="preserve" xmlns:serif="http://www.serif.com/" style="fill-rule:evenodd;clip-rule:evenodd;stroke-linecap:round;stroke-linejoin:round;stroke-miterlimit:1.5;"><g id="Logo"><g id="Head"><g id="Face"><ellipse id="Skin" cx="1000" cy="698.455" rx="557.045" ry="483.072" style="fill:#fc9;"/><g id="Eyes"><g id="Eye"><ellipse cx="1273.83" cy="710.808" rx="95.464" ry="145.127" style="fill:#fff;stroke:#000;stroke-width:21.12px;"/><ellipse cx="1318.81" cy="689.195" rx="44.985" ry="60.51"/></g><g id="Eye1" serif:id="Eye"><ellipse cx="767.762" cy="710.808" rx="95.464" ry="145.127" style="fill:#fff;stroke:#000;stroke-width:21.12px;"/><ellipse cx="812.747" cy="689.195" rx="44.985" ry="60.51"/></g></g><g id="Glasses"><path id="Left-lens" serif:id="Left lens" d="M597.941,521.475c116.201,-13.013 209.465,-12.204 301.659,-1.551l6.071,237.56l-308.992,0l1.262,-236.009Z" style="fill:none;stroke:#000;stroke-width:42.69px;stroke-miterlimit:4;"/><path id="Right-lens" serif:id="Right lens" d="M1086.32,529.659c72.362,-17.177 153.508,-26.583 335.45,-6.458c2.727,95.308 4.556,153.349 -0.897,291.38l-330.461,-6.184l-4.092,-278.738Z" style="fill:none;stroke:#000;stroke-width:42.69px;stroke-miterlimit:4;"/><path id="Nose-bridge" serif:id="Nose bridge" d="M907.655,624.363c47.823,-9.812 118.15,-20.604 178.262,5.901" style="fill:none;stroke:#000;stroke-width:42.69px;stroke-miterlimit:4;"/></g></g><path id="Hair" d="M367.506,742.136c-15.204,-8.076 -49.983,-21.764 -62.327,-32.901c19.944,-16.58 58.24,-37.628 107.231,-53.826c-62.152,-16.079 -91.675,-39.25 -131.654,-65.153l42.07,-22.789c-57.931,16.77 -88.914,2.025 -111.336,-11.395c40.876,-64.014 142.568,-65.174 259.31,-70.08c-132.822,-39.014 -187.777,-32.144 -237.189,-82.671c93.255,-74.399 212.526,11.22 280.646,44.203c-102.693,-60.509 -85.359,-42.14 -146.751,-70.557c39.721,-53.877 108.792,-98.912 162.398,-116.556c51.881,-17.076 64.447,-18.585 181.623,-11.508c-101.142,-39.998 -164.586,17.549 -196.811,-34.437c38.524,-32.396 178.988,-61.123 268.898,-56.959c-45.075,1.567 -74.62,-26.696 -82.508,-46.347c154.054,-11.58 261.054,36.839 326.743,100.044c11.198,-71.972 -15.706,-100.75 -9.493,-149.901c35.887,11.606 46.702,70.915 55.668,130.317c17.638,-123.617 53.594,-142.505 93.358,-178.287c-4.685,73.327 -29.82,105.542 -36.836,156.775c47.068,-62.808 164.535,-143.968 244.394,-138.944c-9.648,22.105 -22.757,31.68 -33.276,52.037c73.662,-7.014 158.442,29.124 193.521,92.978c-40.923,-2.798 -153.766,-4.561 -204.569,51.28c86.467,10.137 149.142,3.522 193.582,84.925l-71.916,-2.092c78.932,29.469 191.099,50.803 273.926,42.105c-54.659,94.04 -66.495,65.266 -202.01,68.22c75.24,24.676 137.403,-45.26 224.514,105.275c-45.896,12.281 -73.96,2.107 -129.43,-23.64c3.86,19.439 131.989,85.092 127.605,112.453c-11.035,43.477 -94.642,5.226 -122.706,-18.991c6.775,41.595 15.487,80.356 26.299,108.594l-39.356,-8.128l33.916,45.636l-190.044,6.525l44.792,-86.402l-39.61,52.037c-20.176,-38.606 21.048,-75.796 21.924,-109.135c-31.567,65.262 -7.604,-97.9 -31.868,-128.43l-12.89,24.238c-56.385,-88.453 -14.001,-168.104 -172.156,-170.902c52.912,-5.267 129.215,25.969 128.047,81.403c-22.22,2.107 -87.707,-28.078 -113.719,-40.704c47.643,23.861 68.253,31.906 84.196,58.247c-41.224,-1.747 -133.02,-24.558 -161.203,-42.101c24.967,32.979 60.348,66.663 46.23,100.714c-38.798,8.607 -202.436,-127.163 -240.383,-128.425c67.282,34.921 91.735,38.441 137.373,93.617c-38.408,7.684 -188.185,21.851 -237.833,-70.833l103.336,146.572c-94.126,-13.338 -157.858,-98.946 -190.202,-166.094c16.852,38.715 31.76,65.741 36.144,85.381c-56.948,8.468 -138.275,-59.638 -133.887,-106.568c-4.976,52.042 -25.139,106.074 -55.26,115.196c-7.106,-21.8 -3.799,-38.591 -3.125,-56.505c-26.686,24.227 -46.428,87.664 -43.358,128.44l-38.068,-19.311c24.01,19.466 57.072,40.714 70.597,65.22c-24.925,13.745 -86.312,13.4 -100.46,-16.321c8.012,33.576 -20.052,109.011 -51.044,132.883c-7.119,-40.045 -5.26,-27.026 -4.624,-72.59c-0.271,16.239 -24.753,110.83 -47.514,125.446l-82.925,-1.278Z" style="fill:#ffff3c;stroke:#000;stroke-width:18.97px;stroke-miterlimit:4;"/></g><g id="Laptop"><path id="Keyboard" d="M249.45,1946.66c0,0 -138.449,-200.481 -201.69,-292.058c-7.11,-10.295 -8.805,-23.393 -4.55,-35.16c4.256,-11.766 13.936,-20.75 25.987,-24.116c74.362,-20.771 201.758,-56.356 201.758,-56.356" style="fill:#272c34;stroke:#000;stroke-width:40px;"/><path id="Lid" d="M242.947,1932.19c-0.607,11.555 3.558,22.853 11.522,31.247c7.965,8.394 19.028,13.148 30.599,13.148c233.678,0 1317.44,0 1537.03,0c21.96,0 40.246,-16.851 42.038,-38.738c14.987,-183.117 78.676,-961.251 94.824,-1158.55c0.962,-11.745 -3.034,-23.357 -11.02,-32.023c-7.986,-8.666 -19.233,-13.596 -31.017,-13.596c-239.485,0 -1345.84,0 -1570.89,0c-22.434,0 -40.942,17.56 -42.12,39.962c-9.772,185.72 -50.706,963.7 -60.959,1158.55Z" style="fill:#272c34;stroke:#000;stroke-width:40px;"/><path id="JT" d="M1105.53,1209.69c-7.05,0 -13.811,2.801 -18.797,7.786c-4.985,4.985 -7.785,11.746 -7.785,18.796l0,281.259c0,30.643 -4.237,57.036 -12.711,79.181c-8.474,22.145 -19.576,40.363 -33.306,54.655c-13.73,14.291 -29.337,24.848 -46.822,31.672c-17.484,6.824 -35.236,10.236 -53.257,10.236c-18.02,0 -35.719,-3.477 -53.096,-10.429c-17.377,-6.953 -32.877,-17.639 -46.5,-32.059c-13.623,-14.42 -24.617,-32.702 -32.984,-54.847c-8.367,-22.145 -12.55,-48.281 -12.55,-78.409l0,-5.863c0,-7.05 2.8,-13.811 7.785,-18.796c4.985,-4.985 11.747,-7.786 18.797,-7.786l31.465,0c14.505,0 26.264,11.759 26.264,26.264l0,0.001c0,16.738 1.769,30.707 5.309,41.908c3.54,11.201 8.206,20.278 13.998,27.231c5.793,6.952 12.39,11.909 19.791,14.87c7.401,2.962 15.071,4.442 23.008,4.442c7.938,0 15.5,-1.48 22.687,-4.442c7.187,-2.961 13.515,-7.789 18.986,-14.484c5.471,-6.695 9.868,-15.386 13.194,-26.072c3.325,-10.686 4.988,-23.625 4.988,-38.818l0,-279.714c0,-7.05 -2.801,-13.811 -7.786,-18.796c-4.985,-4.985 -11.746,-7.786 -18.796,-7.786l-153.108,0c-7.05,0 -13.812,-2.8 -18.797,-7.786c-4.985,-4.985 -7.785,-11.746 -7.785,-18.796l0,-34.515c0,-7.05 2.8,-13.811 7.785,-18.796c4.985,-4.985 11.747,-7.786 18.797,-7.786l629.432,0c7.05,0 13.811,2.801 18.796,7.786c4.985,4.985 7.786,11.746 7.786,18.796l0,34.515c0,7.05 -2.801,13.811 -7.786,18.796c-4.985,4.986 -11.746,7.786 -18.796,7.786l-100.333,0c-14.681,0 -26.582,11.901 -26.582,26.582l0,420.765c0,14.68 -11.901,26.581 -26.582,26.581l-32.112,0c-14.681,0 -26.582,-11.901 -26.582,-26.581l0,-420.765c0,-7.05 -2.801,-13.811 -7.786,-18.796c-4.985,-4.985 -11.746,-7.786 -18.796,-7.786l-99.433,0Z" style="fill:#00969a;fill-rule:nonzero;"/></g></g></svg>
